<svg width="133" height="43" viewBox="0 0 133 43" fill="none" xmlns="http://www.w3.org/2000/svg">
<path fill-rule="evenodd" clip-rule="evenodd" d="M5.744 13.9898C5.38677 13.9296 5.02167 14.0473 4.76149 14.3062C1.73621 17.3182 0.0701294 21.3495 0.0701294 25.6573C0.0701294 31.9264 3.64459 37.3567 8.8162 39.9235C8.4947 38.8355 8.3226 37.6871 8.3226 36.5C8.3226 29.5964 14.1429 24 21.3226 24C25.0794 24 28.4641 25.5323 30.8374 27.9824C30.9551 27.1992 31.0143 26.4216 31.0143 25.6573C31.0143 23.1257 30.4368 20.692 29.2976 18.4241C28.1765 16.1945 26.5281 14.2421 24.5303 12.7775C24.5187 12.769 24.5068 12.7607 24.4949 12.7526C24.4213 12.7029 24.3427 12.644 24.2594 12.5816L24.2508 12.5752C24.2091 12.5439 24.1674 12.5125 24.1253 12.4815C20.9487 10.154 18.9537 6.54584 18.6486 2.57989C18.6186 2.18849 18.399 1.83856 18.0639 1.6477C17.7287 1.45692 17.3228 1.45059 16.9821 1.63083C13.069 3.70169 10.1964 7.39241 9.10088 11.7566C8.76768 13.0852 8.59883 14.4128 8.59883 15.7029C8.59883 16.3752 8.64164 17.0458 8.72671 17.7124C7.87337 16.7896 7.14807 15.7458 6.57704 14.6099C6.41101 14.2798 6.10192 14.0497 5.744 13.9898Z" fill="white"/>
<path d="M46.7166 34H42.3006V20.72H38.8446V16.912H42.3006V15.984C42.3006 14.2773 42.7486 12.9653 43.6446 12.048C44.562 11.1307 45.906 10.672 47.6766 10.672C48.2313 10.672 48.7326 10.7253 49.1806 10.832C49.65 10.9173 50.066 11.0347 50.4286 11.184V14.704C50.194 14.5973 49.9273 14.5227 49.6286 14.48C49.33 14.4373 49.0313 14.416 48.7326 14.416C48.1353 14.416 47.6446 14.544 47.2606 14.8C46.898 15.056 46.7166 15.4827 46.7166 16.08V16.912H51.1646V20.72H46.7166V34ZM57.8526 34H53.4366V16.912H57.8526V34ZM58.5886 12.944C58.5886 13.6907 58.3113 14.32 57.7566 14.832C57.202 15.3227 56.4873 15.568 55.6126 15.568C54.738 15.568 54.0233 15.3227 53.4686 14.832C52.914 14.32 52.6366 13.6907 52.6366 12.944C52.6366 12.1547 52.914 11.5147 53.4686 11.024C54.0233 10.512 54.738 10.256 55.6126 10.256C56.4873 10.256 57.202 10.512 57.7566 11.024C58.3113 11.5147 58.5886 12.1547 58.5886 12.944ZM66.3041 24.688V34H61.8561V16.912H65.9521V19.344C66.5921 18.4907 67.3388 17.8187 68.1921 17.328C69.0668 16.8373 70.0695 16.592 71.2001 16.592C72.9281 16.592 74.3255 17.1467 75.3921 18.256C76.4588 19.344 76.9921 20.912 76.9921 22.96V34H72.5761V24.464C72.5761 23.184 72.3201 22.2133 71.8081 21.552C71.3175 20.8693 70.5708 20.528 69.5681 20.528C68.9708 20.528 68.4161 20.688 67.9041 21.008C67.4135 21.3067 67.0188 21.7653 66.7201 22.384C66.4428 22.9813 66.3041 23.7493 66.3041 24.688ZM85.2729 34H80.8249V16.912H85.2729V34ZM85.9769 12.944C85.9769 13.6907 85.6995 14.32 85.1449 14.832C84.6115 15.3227 83.8969 15.568 83.0009 15.568C82.1262 15.568 81.4115 15.3227 80.8569 14.832C80.3235 14.32 80.0569 13.6907 80.0569 12.944C80.0569 12.1547 80.3235 11.5147 80.8569 11.024C81.4115 10.512 82.1262 10.256 83.0009 10.256C83.8969 10.256 84.6115 10.512 85.1449 11.024C85.6995 11.5147 85.9769 12.1547 85.9769 12.944ZM99.8551 29.68V33.552C99.3218 33.8293 98.7778 34.0213 98.2231 34.128C97.6898 34.256 97.0925 34.32 96.4311 34.32C95.2791 34.32 94.2658 34.1067 93.3911 33.68C92.5378 33.232 91.8765 32.5707 91.4071 31.696C90.9378 30.8 90.7031 29.7227 90.7031 28.464V20.72H87.2471V16.912H90.7031V11.856H95.1191V16.912H100.015V20.72H95.1191V27.44C95.1191 28.4213 95.3325 29.136 95.7591 29.584C96.2071 30.0107 96.8258 30.224 97.6151 30.224C98.0418 30.224 98.4471 30.1813 98.8311 30.096C99.2151 29.9893 99.5565 29.8507 99.8551 29.68ZM118.123 16.912L109.803 40.176H104.971L107.403 33.808L100.683 16.912H105.483L109.771 28.624L113.675 16.912H118.123Z" fill="white"/>
<path d="M125.58 15.608H124.5V12.38H123.204V11.384H126.876V12.38H125.58V15.608ZM129.372 15.608L128.28 12.584V15.608H127.248V11.384H128.88L129.876 14.264L130.884 11.384H132.432V15.608H131.4V12.62L130.32 15.608H129.372Z" fill="white"/>
</svg>
