<svg width="118" height="50" viewBox="0 0 118 50" fill="none" xmlns="http://www.w3.org/2000/svg">
<g clip-path="url(#clip0_307_18)">
<path d="M11.0623 15.8086C11.3912 15.489 11.8526 15.3437 12.3042 15.418C12.7566 15.492 13.1473 15.776 13.3571 16.1836C14.0789 17.5857 14.9957 18.8743 16.0743 20.0134C15.9668 19.1905 15.9127 18.3628 15.9127 17.5328C15.9127 15.9402 16.1261 14.3014 16.5472 12.6612C17.9319 7.27389 21.563 2.71788 26.509 0.161503C26.9396 -0.0609882 27.4527 -0.0531764 27.8763 0.182334C28.3 0.417941 28.5775 0.849904 28.6155 1.33308C29.001 6.22884 31.5228 10.6829 35.538 13.5561C35.5911 13.5944 35.6439 13.6332 35.6966 13.6717C35.8059 13.7517 35.9089 13.8273 36.0051 13.8908C36.0202 13.9008 36.0351 13.911 36.0498 13.9215C38.575 15.7295 40.6586 18.1396 42.0757 20.8919C43.5155 23.6915 44.2456 26.6958 44.2456 29.821C44.2456 31.4131 44.0322 33.0519 43.6112 34.6924C41.3897 43.339 33.6084 49.378 24.6885 49.378C13.9052 49.378 5.13249 40.6047 5.13249 29.821C5.13249 24.5032 7.23839 19.5268 11.0623 15.8086Z" fill="#6359E9"/>
</g>
<path d="M117.52 39.68H111.96V18.32H117.52V39.68ZM114.68 15.0891C114.68 16.0224 115.373 15.08 114.68 15.72C114.013 16.3334 115.8 16.64 114.68 16.64C113.587 16.64 114.544 16.3334 113.85 15.72C113.184 15.08 115.5 16.4333 115.5 15.5C115.5 14.5133 113.62 16.3334 114.286 15.72C114.98 15.08 113.587 15.5 114.68 15.5C115.8 15.5 113.402 14.36 114.069 15C114.762 15.6133 114.68 14.1024 114.68 15.0891Z" fill="#1C1C3F"/>
<path d="M109.426 18.32L99.0263 47.4H92.9863L96.0263 39.44L87.6263 18.32H93.6263L98.9863 32.96L103.866 18.32H109.426Z" fill="#1C1C3F"/>
<path d="M72.8166 28.04V39.68H67.2566V18.32H72.3766V21.36C73.1766 20.2934 74.1099 19.4534 75.1766 18.84C76.2699 18.2267 77.5232 17.92 78.9366 17.92C81.0966 17.92 82.8432 18.6134 84.1766 20C85.5099 21.36 86.1766 23.32 86.1766 25.88V39.68H80.6566V27.76C80.6566 26.16 80.3366 24.9467 79.6966 24.12C79.0832 23.2667 78.1499 22.84 76.8966 22.84C76.1499 22.84 75.4566 23.04 74.8166 23.44C74.2032 23.8134 73.7099 24.3867 73.3366 25.16C72.9899 25.9067 72.8166 26.8667 72.8166 28.04Z" fill="#1C1C3F"/>
<path d="M58.84 39.68H53.32V23.08H49V18.32H53.32V17.16C53.32 15.0267 53.88 13.3867 55 12.24C56.1467 11.0934 57.8267 10.52 60.04 10.52C60.7333 10.52 61.36 10.5867 61.92 10.72C62.5067 10.8267 63.0267 10.9734 63.48 11.16V15.56C63.1867 15.4267 62.8533 15.3334 62.48 15.28C62.1067 15.2267 61.7333 15.2 61.36 15.2C60.6133 15.2 60 15.36 59.52 15.68C59.0667 16 58.84 16.5334 58.84 17.28V18.32H64.4V23.08H58.84V39.68Z" fill="#1C1C3F"/>
<path d="M114.514 12.2836C114.268 12.0539 113.921 11.6872 113.782 11.3374C113.718 11.1754 113.847 11 114.022 11H115.538C115.713 11 115.842 11.1751 115.778 11.3374C115.639 11.6872 115.292 12.0539 115.046 12.2836C116.405 12.4855 117.56 14.1889 117.56 15.5491C117.56 16.3854 116.88 17.0655 116.044 17.0655H113.516C112.68 17.0655 112 16.3854 112 15.5491C112 14.1889 113.155 12.4855 114.514 12.2836Z" fill="#1C1C3F"/>
<defs>
<clipPath id="clip0_307_18">
<rect width="49.3782" height="49.3782" fill="white"/>
</clipPath>
</defs>
</svg>
