<svg width="221" height="77" viewBox="0 0 221 77" fill="none" xmlns="http://www.w3.org/2000/svg">
<rect x="0.5" y="0.5" width="220" height="76" rx="10.9" fill="#1D1D41" stroke="#242442"/>
<path d="M17.876 24V15.6H20.984C21.568 15.6 22.056 15.696 22.448 15.888C22.84 16.072 23.132 16.328 23.324 16.656C23.524 16.976 23.624 17.34 23.624 17.748C23.624 18.172 23.532 18.528 23.348 18.816C23.164 19.104 22.92 19.328 22.616 19.488C22.32 19.64 22 19.728 21.656 19.752L21.824 19.632C22.192 19.64 22.528 19.74 22.832 19.932C23.136 20.116 23.376 20.364 23.552 20.676C23.728 20.988 23.816 21.332 23.816 21.708C23.816 22.14 23.712 22.532 23.504 22.884C23.296 23.228 22.988 23.5 22.58 23.7C22.172 23.9 21.672 24 21.08 24H17.876ZM19.076 23.004H20.924C21.452 23.004 21.86 22.884 22.148 22.644C22.444 22.396 22.592 22.048 22.592 21.6C22.592 21.16 22.44 20.808 22.136 20.544C21.84 20.28 21.428 20.148 20.9 20.148H19.076V23.004ZM19.076 19.224H20.852C21.356 19.224 21.74 19.108 22.004 18.876C22.268 18.636 22.4 18.308 22.4 17.892C22.4 17.492 22.268 17.176 22.004 16.944C21.74 16.704 21.344 16.584 20.816 16.584H19.076V19.224ZM27.1911 24.144C26.6951 24.144 26.2831 24.06 25.9551 23.892C25.6271 23.724 25.3831 23.5 25.2231 23.22C25.0631 22.932 24.9831 22.624 24.9831 22.296C24.9831 21.896 25.0871 21.556 25.2951 21.276C25.5031 20.988 25.7991 20.768 26.1831 20.616C26.5671 20.464 27.0271 20.388 27.5631 20.388H29.1351C29.1351 20.036 29.0831 19.744 28.9791 19.512C28.8751 19.28 28.7191 19.108 28.5111 18.996C28.3111 18.876 28.0551 18.816 27.7431 18.816C27.3831 18.816 27.0751 18.904 26.8191 19.08C26.5631 19.248 26.4031 19.5 26.3391 19.836H25.1391C25.1871 19.412 25.3311 19.052 25.5711 18.756C25.8191 18.452 26.1351 18.22 26.5191 18.06C26.9031 17.892 27.3111 17.808 27.7431 17.808C28.3111 17.808 28.7871 17.908 29.1711 18.108C29.5551 18.308 29.8431 18.592 30.0351 18.96C30.2351 19.32 30.3351 19.752 30.3351 20.256V24H29.2911L29.1951 22.98C29.1071 23.14 29.0031 23.292 28.8831 23.436C28.7631 23.58 28.6191 23.704 28.4511 23.808C28.2911 23.912 28.1031 23.992 27.8871 24.048C27.6791 24.112 27.4471 24.144 27.1911 24.144ZM27.4191 23.172C27.6751 23.172 27.9071 23.12 28.1151 23.016C28.3231 22.912 28.4991 22.772 28.6431 22.596C28.7951 22.412 28.9071 22.208 28.9791 21.984C29.0591 21.752 29.1031 21.516 29.1111 21.276V21.24H27.6831C27.3391 21.24 27.0591 21.284 26.8431 21.372C26.6351 21.452 26.4831 21.564 26.3871 21.708C26.2911 21.852 26.2431 22.02 26.2431 22.212C26.2431 22.412 26.2871 22.584 26.3751 22.728C26.4711 22.864 26.6071 22.972 26.7831 23.052C26.9591 23.132 27.1711 23.172 27.4191 23.172ZM31.8668 24V15.36H33.0668V24H31.8668ZM36.7184 24.144C36.2224 24.144 35.8104 24.06 35.4824 23.892C35.1544 23.724 34.9104 23.5 34.7504 23.22C34.5904 22.932 34.5104 22.624 34.5104 22.296C34.5104 21.896 34.6144 21.556 34.8224 21.276C35.0304 20.988 35.3264 20.768 35.7104 20.616C36.0944 20.464 36.5544 20.388 37.0904 20.388H38.6624C38.6624 20.036 38.6104 19.744 38.5064 19.512C38.4024 19.28 38.2464 19.108 38.0384 18.996C37.8384 18.876 37.5824 18.816 37.2704 18.816C36.9104 18.816 36.6024 18.904 36.3464 19.08C36.0904 19.248 35.9304 19.5 35.8664 19.836H34.6664C34.7144 19.412 34.8584 19.052 35.0984 18.756C35.3464 18.452 35.6624 18.22 36.0464 18.06C36.4304 17.892 36.8384 17.808 37.2704 17.808C37.8384 17.808 38.3144 17.908 38.6984 18.108C39.0824 18.308 39.3704 18.592 39.5624 18.96C39.7624 19.32 39.8624 19.752 39.8624 20.256V24H38.8184L38.7224 22.98C38.6344 23.14 38.5304 23.292 38.4104 23.436C38.2904 23.58 38.1464 23.704 37.9784 23.808C37.8184 23.912 37.6304 23.992 37.4144 24.048C37.2064 24.112 36.9744 24.144 36.7184 24.144ZM36.9464 23.172C37.2024 23.172 37.4344 23.12 37.6424 23.016C37.8504 22.912 38.0264 22.772 38.1704 22.596C38.3224 22.412 38.4344 22.208 38.5064 21.984C38.5864 21.752 38.6304 21.516 38.6384 21.276V21.24H37.2104C36.8664 21.24 36.5864 21.284 36.3704 21.372C36.1624 21.452 36.0104 21.564 35.9144 21.708C35.8184 21.852 35.7704 22.02 35.7704 22.212C35.7704 22.412 35.8144 22.584 35.9024 22.728C35.9984 22.864 36.1344 22.972 36.3104 23.052C36.4864 23.132 36.6984 23.172 36.9464 23.172ZM41.3941 24V17.952H42.4741L42.5461 18.984C42.7381 18.624 43.0101 18.34 43.3621 18.132C43.7141 17.916 44.1181 17.808 44.5741 17.808C45.0541 17.808 45.4661 17.904 45.8101 18.096C46.1541 18.288 46.4221 18.58 46.6141 18.972C46.8061 19.356 46.9021 19.84 46.9021 20.424V24H45.7021V20.544C45.7021 19.984 45.5781 19.56 45.3301 19.272C45.0821 18.984 44.7221 18.84 44.2501 18.84C43.9381 18.84 43.6581 18.916 43.4101 19.068C43.1621 19.212 42.9621 19.428 42.8101 19.716C42.6661 20.004 42.5941 20.356 42.5941 20.772V24H41.3941ZM51.2331 24.144C50.6491 24.144 50.1291 24.012 49.6731 23.748C49.2171 23.476 48.8571 23.104 48.5931 22.632C48.3371 22.16 48.2091 21.612 48.2091 20.988C48.2091 20.356 48.3371 19.804 48.5931 19.332C48.8571 18.852 49.2171 18.48 49.6731 18.216C50.1291 17.944 50.6491 17.808 51.2331 17.808C51.9691 17.808 52.5851 18 53.0811 18.384C53.5771 18.768 53.8931 19.288 54.0291 19.944H52.7811C52.7011 19.592 52.5171 19.32 52.2291 19.128C51.9491 18.936 51.6131 18.84 51.2211 18.84C50.9011 18.84 50.6051 18.924 50.3331 19.092C50.0611 19.252 49.8411 19.492 49.6731 19.812C49.5131 20.124 49.4331 20.512 49.4331 20.976C49.4331 21.32 49.4811 21.628 49.5771 21.9C49.6731 22.164 49.8011 22.388 49.9611 22.572C50.1291 22.756 50.3211 22.896 50.5371 22.992C50.7531 23.08 50.9811 23.124 51.2211 23.124C51.4851 23.124 51.7211 23.084 51.9291 23.004C52.1451 22.916 52.3251 22.788 52.4691 22.62C52.6211 22.452 52.7251 22.252 52.7811 22.02H54.0291C53.8931 22.66 53.5771 23.176 53.0811 23.568C52.5851 23.952 51.9691 24.144 51.2331 24.144ZM50.2371 27.144V26.424H51.4251C51.6811 26.424 51.8691 26.38 51.9891 26.292C52.1171 26.204 52.1811 26.072 52.1811 25.896C52.1811 25.728 52.1171 25.604 51.9891 25.524C51.8691 25.444 51.6811 25.404 51.4251 25.404H50.7891V23.94H51.5691V24.72C51.8571 24.712 52.1171 24.752 52.3491 24.84C52.5891 24.928 52.7771 25.06 52.9131 25.236C53.0491 25.42 53.1171 25.648 53.1171 25.92C53.1171 26.176 53.0491 26.396 52.9131 26.58C52.7851 26.764 52.6091 26.904 52.3851 27C52.1611 27.096 51.9091 27.144 51.6291 27.144H50.2371ZM58.1932 24.144C57.6252 24.144 57.1132 24.012 56.6572 23.748C56.2092 23.484 55.8532 23.116 55.5892 22.644C55.3332 22.164 55.2052 21.612 55.2052 20.988C55.2052 20.348 55.3372 19.792 55.6012 19.32C55.8652 18.84 56.2252 18.468 56.6812 18.204C57.1372 17.94 57.6492 17.808 58.2172 17.808C58.7932 17.808 59.3052 17.94 59.7532 18.204C60.2012 18.468 60.5532 18.836 60.8092 19.308C61.0732 19.78 61.2052 20.336 61.2052 20.976C61.2052 21.616 61.0732 22.172 60.8092 22.644C60.5532 23.116 60.1972 23.484 59.7412 23.748C59.2852 24.012 58.7692 24.144 58.1932 24.144ZM58.1932 23.112C58.5212 23.112 58.8172 23.032 59.0812 22.872C59.3532 22.712 59.5692 22.476 59.7292 22.164C59.8972 21.844 59.9812 21.448 59.9812 20.976C59.9812 20.504 59.9012 20.112 59.7412 19.8C59.5812 19.48 59.3652 19.24 59.0932 19.08C58.8292 18.92 58.5372 18.84 58.2172 18.84C57.8972 18.84 57.6012 18.92 57.3292 19.08C57.0572 19.24 56.8372 19.48 56.6692 19.8C56.5092 20.112 56.4292 20.504 56.4292 20.976C56.4292 21.448 56.5092 21.844 56.6692 22.164C56.8372 22.476 57.0532 22.712 57.3172 22.872C57.5892 23.032 57.8812 23.112 58.1932 23.112Z" fill="#8C89B3"/>
<path d="M18.022 58V48.2H21.34C22.1147 48.2 22.7493 48.3307 23.244 48.592C23.7387 48.8533 24.1027 49.2033 24.336 49.642C24.5787 50.0713 24.7 50.5613 24.7 51.112C24.7 51.6347 24.5787 52.12 24.336 52.568C24.1027 53.0067 23.734 53.3613 23.23 53.632C22.726 53.8933 22.082 54.024 21.298 54.024H19.422V58H18.022ZM23.174 58L21.06 53.646H22.6L24.798 58H23.174ZM19.422 52.96H21.242C21.9327 52.96 22.4413 52.792 22.768 52.456C23.0947 52.1107 23.258 51.672 23.258 51.14C23.258 50.5987 23.0993 50.1693 22.782 49.852C22.4647 49.5347 21.9513 49.376 21.242 49.376H19.422V52.96ZM29.1162 59.218V46.926H30.0682V59.218H29.1162ZM29.7182 58.168C28.9996 58.168 28.3696 58.042 27.8282 57.79C27.2869 57.5287 26.8669 57.1647 26.5682 56.698C26.2696 56.2313 26.1202 55.6853 26.1202 55.06H27.5902C27.5996 55.4147 27.6836 55.7413 27.8422 56.04C28.0102 56.3293 28.2482 56.5627 28.5562 56.74C28.8736 56.908 29.2609 56.992 29.7182 56.992C30.1102 56.992 30.4462 56.9267 30.7262 56.796C31.0156 56.6653 31.2349 56.488 31.3842 56.264C31.5336 56.0307 31.6082 55.7647 31.6082 55.466C31.6082 55.1207 31.5289 54.836 31.3702 54.612C31.2116 54.388 30.9969 54.206 30.7262 54.066C30.4649 53.9167 30.1569 53.786 29.8022 53.674C29.4569 53.562 29.0929 53.4407 28.7102 53.31C27.9356 53.058 27.3569 52.7313 26.9742 52.33C26.6009 51.9287 26.4142 51.406 26.4142 50.762C26.4142 50.2113 26.5449 49.7353 26.8062 49.334C27.0676 48.9233 27.4316 48.606 27.8982 48.382C28.3742 48.1487 28.9342 48.032 29.5782 48.032C30.2129 48.032 30.7682 48.1487 31.2442 48.382C31.7202 48.6153 32.0936 48.9373 32.3642 49.348C32.6349 49.7587 32.7702 50.2393 32.7702 50.79H31.2862C31.2862 50.538 31.2209 50.2907 31.0902 50.048C30.9596 49.8053 30.7636 49.6093 30.5022 49.46C30.2409 49.3013 29.9189 49.222 29.5362 49.222C29.2189 49.2127 28.9342 49.264 28.6822 49.376C28.4302 49.488 28.2342 49.6513 28.0942 49.866C27.9542 50.0807 27.8842 50.3373 27.8842 50.636C27.8842 50.9347 27.9449 51.1773 28.0662 51.364C28.1969 51.5413 28.3836 51.6953 28.6262 51.826C28.8689 51.9567 29.1489 52.078 29.4662 52.19C29.7929 52.2927 30.1522 52.4093 30.5442 52.54C31.0296 52.6987 31.4589 52.8947 31.8322 53.128C32.2149 53.352 32.5136 53.646 32.7282 54.01C32.9522 54.3647 33.0642 54.822 33.0642 55.382C33.0642 55.8673 32.9382 56.32 32.6862 56.74C32.4342 57.16 32.0609 57.5053 31.5662 57.776C31.0716 58.0373 30.4556 58.168 29.7182 58.168ZM38.3691 58V56.26C39.2624 55.5533 40.1157 54.8467 40.9291 54.14C41.7424 53.4333 42.4757 52.7333 43.1291 52.04C43.7824 51.3467 44.2957 50.6667 44.6691 50C45.0424 49.3333 45.2291 48.6933 45.2291 48.08C45.2291 47.68 45.1557 47.3067 45.0091 46.96C44.8624 46.6133 44.6291 46.3333 44.3091 46.12C44.0024 45.9067 43.5891 45.8 43.0691 45.8C42.5624 45.8 42.1291 45.9133 41.7691 46.14C41.4224 46.3667 41.1624 46.6733 40.9891 47.06C40.8157 47.4333 40.7291 47.86 40.7291 48.34H38.4091C38.4357 47.3267 38.6557 46.48 39.0691 45.8C39.4824 45.12 40.0424 44.6133 40.7491 44.28C41.4557 43.9333 42.2491 43.76 43.1291 43.76C44.0757 43.76 44.8824 43.9333 45.5491 44.28C46.2157 44.6267 46.7291 45.1133 47.0891 45.74C47.4491 46.3667 47.6291 47.1067 47.6291 47.96C47.6291 48.5867 47.5091 49.2067 47.2691 49.82C47.0424 50.42 46.7224 51.0067 46.3091 51.58C45.8957 52.14 45.4291 52.6867 44.9091 53.22C44.4024 53.74 43.8757 54.24 43.3291 54.72C42.7824 55.1867 42.2557 55.62 41.7491 56.02H48.0091V58H38.3691ZM51.212 58.1C50.7587 58.1 50.392 57.96 50.112 57.68C49.832 57.4 49.692 57.0667 49.692 56.68C49.692 56.2667 49.832 55.92 50.112 55.64C50.392 55.36 50.7587 55.22 51.212 55.22C51.652 55.22 52.012 55.36 52.292 55.64C52.572 55.92 52.712 56.2667 52.712 56.68C52.712 57.0667 52.572 57.4 52.292 57.68C52.012 57.96 51.652 58.1 51.212 58.1ZM59.5186 58.24C58.6119 58.24 57.7853 58.08 57.0386 57.76C56.2919 57.4267 55.6919 56.9267 55.2386 56.26C54.7986 55.58 54.5653 54.7267 54.5386 53.7H56.8986C56.9119 54.1667 57.0186 54.5933 57.2186 54.98C57.4319 55.3533 57.7319 55.6533 58.1186 55.88C58.5053 56.0933 58.9719 56.2 59.5186 56.2C60.0386 56.2 60.4786 56.1 60.8386 55.9C61.2119 55.7 61.4919 55.4267 61.6786 55.08C61.8653 54.7333 61.9586 54.3467 61.9586 53.92C61.9586 53.4 61.8319 52.9733 61.5786 52.64C61.3253 52.2933 60.9786 52.0333 60.5386 51.86C60.0986 51.6867 59.5986 51.6 59.0386 51.6H57.9986V49.62H59.0386C59.7719 49.62 60.3719 49.4533 60.8386 49.12C61.3053 48.7733 61.5386 48.2733 61.5386 47.62C61.5386 47.0733 61.3586 46.6333 60.9986 46.3C60.6519 45.9667 60.1519 45.8 59.4986 45.8C58.8186 45.8 58.2786 46 57.8786 46.4C57.4919 46.8 57.2786 47.2933 57.2386 47.88H54.8786C54.9186 47.04 55.1319 46.3133 55.5186 45.7C55.9186 45.0733 56.4586 44.5933 57.1386 44.26C57.8186 43.9267 58.6119 43.76 59.5186 43.76C60.4653 43.76 61.2653 43.9267 61.9186 44.26C62.5719 44.5933 63.0653 45.04 63.3986 45.6C63.7453 46.16 63.9186 46.7733 63.9186 47.44C63.9186 47.96 63.8186 48.4333 63.6186 48.86C63.4186 49.2867 63.1453 49.6467 62.7986 49.94C62.4653 50.22 62.0719 50.4267 61.6186 50.56C62.1386 50.6667 62.5986 50.8733 62.9986 51.18C63.4119 51.4867 63.7319 51.88 63.9586 52.36C64.1986 52.8267 64.3186 53.3733 64.3186 54C64.3186 54.76 64.1319 55.4667 63.7586 56.12C63.3986 56.76 62.8586 57.2733 62.1386 57.66C61.4319 58.0467 60.5586 58.24 59.5186 58.24ZM71.8713 58.24C70.8713 58.24 70.0046 58.0667 69.2713 57.72C68.5513 57.36 67.9846 56.8733 67.5713 56.26C67.1579 55.6333 66.9113 54.9267 66.8313 54.14H69.1713C69.2913 54.7267 69.5913 55.22 70.0713 55.62C70.5513 56.0067 71.1513 56.2 71.8713 56.2C72.4179 56.2 72.8846 56.0733 73.2713 55.82C73.6579 55.5533 73.9579 55.2 74.1713 54.76C74.3979 54.3067 74.5113 53.8 74.5113 53.24C74.5113 52.6667 74.3979 52.1667 74.1713 51.74C73.9579 51.3133 73.6579 50.9867 73.2713 50.76C72.8846 50.52 72.4379 50.4 71.9313 50.4C71.3046 50.4 70.7646 50.5467 70.3113 50.84C69.8713 51.12 69.5513 51.4733 69.3513 51.9H67.0313L68.1913 44H75.9113V46.1H69.9913L69.3513 49.56C69.6579 49.2267 70.0646 48.96 70.5713 48.76C71.0779 48.5467 71.6579 48.44 72.3113 48.44C73.0446 48.44 73.6913 48.5667 74.2513 48.82C74.8113 49.0733 75.2846 49.42 75.6713 49.86C76.0579 50.3 76.3446 50.8133 76.5313 51.4C76.7313 51.9733 76.8312 52.58 76.8312 53.22C76.8312 53.94 76.7113 54.6067 76.4713 55.22C76.2313 55.82 75.8913 56.3467 75.4513 56.8C75.0246 57.2533 74.5046 57.6067 73.8913 57.86C73.2913 58.1133 72.6179 58.24 71.8713 58.24ZM85.6945 58V55.34H78.7545V53.42L85.3545 44H88.0745V53.24H89.9745V55.34H88.0745V58H85.6945ZM81.3345 53.24H85.8345V46.64L81.3345 53.24ZM90.9884 60.46L92.1284 55.58H94.4684L92.5684 60.46H90.9884ZM102.98 58V55.34H96.0397V53.42L102.64 44H105.36V53.24H107.26V55.34H105.36V58H102.98ZM98.6197 53.24H103.12V46.64L98.6197 53.24ZM114.194 58.24C113.247 58.24 112.394 58.0733 111.634 57.74C110.874 57.3933 110.267 56.9133 109.814 56.3C109.374 55.6733 109.154 54.94 109.154 54.1C109.154 53.54 109.254 53.02 109.454 52.54C109.654 52.06 109.94 51.6467 110.314 51.3C110.687 50.94 111.12 50.6733 111.614 50.5C110.96 50.2067 110.44 49.8 110.054 49.28C109.68 48.7467 109.494 48.1533 109.494 47.5C109.494 46.82 109.674 46.2 110.034 45.64C110.394 45.08 110.92 44.6267 111.614 44.28C112.32 43.9333 113.18 43.76 114.194 43.76C115.207 43.76 116.06 43.9333 116.754 44.28C117.447 44.6267 117.974 45.08 118.334 45.64C118.694 46.2 118.874 46.82 118.874 47.5C118.874 48.14 118.68 48.7333 118.294 49.28C117.92 49.8133 117.407 50.22 116.754 50.5C117.26 50.6733 117.694 50.94 118.054 51.3C118.427 51.66 118.714 52.08 118.914 52.56C119.127 53.0267 119.234 53.54 119.234 54.1C119.234 54.94 119.007 55.6733 118.554 56.3C118.1 56.9133 117.494 57.3933 116.734 57.74C115.987 58.0733 115.14 58.24 114.194 58.24ZM114.194 56.22C115.074 56.22 115.734 56.0067 116.174 55.58C116.627 55.14 116.854 54.5867 116.854 53.92C116.854 53.1733 116.614 52.6 116.134 52.2C115.667 51.7867 115.02 51.58 114.194 51.58C113.367 51.58 112.707 51.7867 112.214 52.2C111.734 52.6 111.494 53.1733 111.494 53.92C111.494 54.5867 111.72 55.14 112.174 55.58C112.64 56.0067 113.314 56.22 114.194 56.22ZM114.194 49.76C114.914 49.76 115.474 49.5733 115.874 49.2C116.287 48.8133 116.494 48.3333 116.494 47.76C116.494 47.1067 116.287 46.6067 115.874 46.26C115.474 45.9 114.914 45.72 114.194 45.72C113.474 45.72 112.907 45.9 112.494 46.26C112.094 46.6067 111.894 47.1067 111.894 47.76C111.894 48.3467 112.094 48.8267 112.494 49.2C112.907 49.5733 113.474 49.76 114.194 49.76Z" fill="white"/>
<rect x="159.25" y="43.25" width="46.5" height="16.5" rx="8.25" stroke="#02B15A" stroke-width="0.5"/>
<path d="M165.083 51.5L168 48.5833M168 48.5833L170.917 51.5M168 48.5833V54.4167" stroke="#02B15A" stroke-linecap="round" stroke-linejoin="round"/>
<path d="M177.37 54.28V49.92H178.12V54.28H177.37ZM175.46 52.45V51.74H180.03V52.45H175.46ZM183.794 55V54.41C184.268 54.0367 184.718 53.66 185.144 53.28C185.578 52.9 185.961 52.5233 186.294 52.15C186.628 51.77 186.888 51.4 187.074 51.04C187.268 50.68 187.364 50.3333 187.364 50C187.364 49.7533 187.321 49.5267 187.234 49.32C187.148 49.1067 187.008 48.9333 186.814 48.8C186.628 48.6667 186.374 48.6 186.054 48.6C185.741 48.6 185.481 48.67 185.274 48.81C185.068 48.9433 184.911 49.1233 184.804 49.35C184.704 49.57 184.654 49.8133 184.654 50.08H183.844C183.851 49.62 183.948 49.2267 184.134 48.9C184.328 48.5667 184.591 48.3133 184.924 48.14C185.258 47.9667 185.638 47.88 186.064 47.88C186.484 47.88 186.854 47.96 187.174 48.12C187.494 48.2733 187.744 48.5033 187.924 48.81C188.111 49.1167 188.204 49.5033 188.204 49.97C188.204 50.2967 188.134 50.6233 187.994 50.95C187.861 51.2767 187.681 51.5967 187.454 51.91C187.228 52.2167 186.974 52.5133 186.694 52.8C186.421 53.0867 186.138 53.3567 185.844 53.61C185.558 53.8633 185.288 54.0933 185.034 54.3H188.444V55H183.794ZM190.13 55L192.86 48.72H189.02V48H193.72V48.63L191.02 55H190.13ZM195.542 55L199.612 48H200.452L196.382 55H195.542ZM199.952 55.12C199.652 55.12 199.382 55.0533 199.142 54.92C198.902 54.78 198.708 54.5833 198.562 54.33C198.422 54.0767 198.352 53.78 198.352 53.44C198.352 53.0933 198.422 52.7967 198.562 52.55C198.708 52.2967 198.902 52.1033 199.142 51.97C199.382 51.83 199.652 51.76 199.952 51.76C200.258 51.76 200.528 51.83 200.762 51.97C201.002 52.1033 201.192 52.2967 201.332 52.55C201.472 52.7967 201.542 53.0933 201.542 53.44C201.542 53.78 201.472 54.0767 201.332 54.33C201.192 54.5833 201.002 54.78 200.762 54.92C200.522 55.0533 200.252 55.12 199.952 55.12ZM199.942 54.47C200.102 54.47 200.248 54.4333 200.382 54.36C200.515 54.28 200.622 54.1633 200.702 54.01C200.788 53.8567 200.832 53.6667 200.832 53.44C200.832 53.2067 200.792 53.0133 200.712 52.86C200.632 52.7067 200.525 52.5933 200.392 52.52C200.258 52.44 200.112 52.4 199.952 52.4C199.798 52.4 199.652 52.44 199.512 52.52C199.378 52.5933 199.268 52.7067 199.182 52.86C199.102 53.0133 199.062 53.2067 199.062 53.44C199.062 53.6667 199.102 53.8567 199.182 54.01C199.268 54.1633 199.378 54.28 199.512 54.36C199.645 54.4333 199.788 54.47 199.942 54.47ZM196.102 51.25C195.802 51.25 195.532 51.1833 195.292 51.05C195.052 50.91 194.858 50.7133 194.712 50.46C194.572 50.2067 194.502 49.91 194.502 49.57C194.502 49.2233 194.572 48.9267 194.712 48.68C194.858 48.4267 195.052 48.2333 195.292 48.1C195.538 47.96 195.812 47.89 196.112 47.89C196.412 47.89 196.682 47.96 196.922 48.1C197.162 48.2333 197.352 48.4267 197.492 48.68C197.632 48.9267 197.702 49.2233 197.702 49.57C197.702 49.91 197.632 50.2067 197.492 50.46C197.352 50.7133 197.158 50.91 196.912 51.05C196.672 51.1833 196.402 51.25 196.102 51.25ZM196.102 50.6C196.262 50.6 196.408 50.5633 196.542 50.49C196.675 50.41 196.782 50.2933 196.862 50.14C196.942 49.9867 196.982 49.7967 196.982 49.57C196.982 49.3367 196.942 49.1433 196.862 48.99C196.782 48.83 196.675 48.7133 196.542 48.64C196.408 48.56 196.265 48.52 196.112 48.52C195.958 48.52 195.812 48.56 195.672 48.64C195.532 48.7133 195.418 48.83 195.332 48.99C195.252 49.1433 195.212 49.3367 195.212 49.57C195.212 49.7967 195.252 49.9867 195.332 50.14C195.418 50.2933 195.528 50.41 195.662 50.49C195.802 50.5633 195.948 50.6 196.102 50.6Z" fill="#02B15A"/>
</svg>
