<svg width="202" height="117" viewBox="0 0 202 117" fill="none" xmlns="http://www.w3.org/2000/svg">
<rect x="0.5" y="0.5" width="201" height="116" rx="10.9" fill="#1D1D41" stroke="#242442"/>
<rect x="17" y="15" width="30" height="30" rx="10" fill="#6359E9"/>
<path d="M55.576 34.144C54.96 34.144 54.424 34.032 53.968 33.808C53.512 33.584 53.16 33.272 52.912 32.872C52.664 32.472 52.54 32.008 52.54 31.48H53.596C53.596 31.808 53.672 32.112 53.824 32.392C53.976 32.664 54.196 32.884 54.484 33.052C54.78 33.212 55.144 33.292 55.576 33.292C55.952 33.292 56.272 33.232 56.536 33.112C56.808 32.984 57.012 32.812 57.148 32.596C57.292 32.38 57.364 32.136 57.364 31.864C57.364 31.536 57.292 31.272 57.148 31.072C57.012 30.864 56.824 30.696 56.584 30.568C56.344 30.44 56.064 30.328 55.744 30.232C55.432 30.128 55.104 30.02 54.76 29.908C54.096 29.684 53.608 29.404 53.296 29.068C52.984 28.732 52.828 28.296 52.828 27.76C52.828 27.304 52.932 26.904 53.14 26.56C53.356 26.216 53.66 25.948 54.052 25.756C54.452 25.556 54.924 25.456 55.468 25.456C56.004 25.456 56.468 25.556 56.86 25.756C57.26 25.956 57.572 26.232 57.796 26.584C58.02 26.928 58.132 27.328 58.132 27.784H57.076C57.076 27.552 57.016 27.324 56.896 27.1C56.776 26.876 56.592 26.692 56.344 26.548C56.104 26.396 55.8 26.32 55.432 26.32C55.128 26.312 54.856 26.364 54.616 26.476C54.384 26.58 54.2 26.732 54.064 26.932C53.936 27.132 53.872 27.376 53.872 27.664C53.872 27.936 53.928 28.156 54.04 28.324C54.16 28.492 54.328 28.636 54.544 28.756C54.768 28.868 55.028 28.972 55.324 29.068C55.62 29.164 55.948 29.272 56.308 29.392C56.716 29.528 57.076 29.696 57.388 29.896C57.708 30.088 57.956 30.336 58.132 30.64C58.316 30.944 58.408 31.332 58.408 31.804C58.408 32.204 58.3 32.584 58.084 32.944C57.876 33.296 57.564 33.584 57.148 33.808C56.732 34.032 56.208 34.144 55.576 34.144ZM62.1769 34C61.8169 34 61.5049 33.944 61.2409 33.832C60.9769 33.72 60.7729 33.532 60.6289 33.268C60.4929 32.996 60.4249 32.632 60.4249 32.176V28.804H59.3689V27.952H60.4249L60.5569 26.488H61.4329V27.952H63.1849V28.804H61.4329V32.176C61.4329 32.552 61.5089 32.808 61.6609 32.944C61.8129 33.072 62.0809 33.136 62.4649 33.136H63.1129V34H62.1769ZM64.5002 34V27.952H65.4122L65.4842 29.104C65.6202 28.832 65.7922 28.6 66.0002 28.408C66.2162 28.216 66.4722 28.068 66.7682 27.964C67.0722 27.86 67.4162 27.808 67.8002 27.808V28.864H67.4282C67.1722 28.864 66.9282 28.9 66.6962 28.972C66.4642 29.036 66.2562 29.144 66.0722 29.296C65.8962 29.448 65.7562 29.656 65.6522 29.92C65.5562 30.176 65.5082 30.496 65.5082 30.88V34H64.5002ZM71.3709 34.144C70.8029 34.144 70.2989 34.012 69.8589 33.748C69.4269 33.484 69.0869 33.116 68.8389 32.644C68.5909 32.164 68.4669 31.608 68.4669 30.976C68.4669 30.336 68.5869 29.78 68.8269 29.308C69.0749 28.836 69.4189 28.468 69.8589 28.204C70.3069 27.94 70.8189 27.808 71.3949 27.808C71.9869 27.808 72.4869 27.94 72.8949 28.204C73.3109 28.468 73.6269 28.816 73.8429 29.248C74.0669 29.672 74.1789 30.14 74.1789 30.652C74.1789 30.732 74.1789 30.816 74.1789 30.904C74.1789 30.992 74.1749 31.092 74.1669 31.204H69.2229V30.424H73.1949C73.1709 29.872 72.9869 29.44 72.6429 29.128C72.3069 28.816 71.8829 28.66 71.3709 28.66C71.0269 28.66 70.7069 28.74 70.4109 28.9C70.1229 29.052 69.8909 29.28 69.7149 29.584C69.5389 29.88 69.4509 30.252 69.4509 30.7V31.036C69.4509 31.532 69.5389 31.948 69.7149 32.284C69.8989 32.62 70.1349 32.872 70.4229 33.04C70.7189 33.208 71.0349 33.292 71.3709 33.292C71.7949 33.292 72.1429 33.2 72.4149 33.016C72.6949 32.824 72.8949 32.568 73.0149 32.248H74.0109C73.9149 32.608 73.7469 32.932 73.5069 33.22C73.2669 33.508 72.9669 33.736 72.6069 33.904C72.2549 34.064 71.8429 34.144 71.3709 34.144ZM77.5072 34.144C77.0192 34.144 76.6112 34.06 76.2832 33.892C75.9552 33.716 75.7112 33.488 75.5512 33.208C75.3912 32.92 75.3112 32.608 75.3112 32.272C75.3112 31.864 75.4152 31.52 75.6232 31.24C75.8392 30.952 76.1392 30.736 76.5232 30.592C76.9152 30.44 77.3752 30.364 77.9032 30.364H79.4992C79.4992 29.988 79.4392 29.676 79.3192 29.428C79.2072 29.172 79.0392 28.98 78.8152 28.852C78.5992 28.724 78.3272 28.66 77.9992 28.66C77.6152 28.66 77.2832 28.756 77.0032 28.948C76.7232 29.14 76.5512 29.424 76.4872 29.8H75.4552C75.5032 29.368 75.6472 29.008 75.8872 28.72C76.1352 28.424 76.4472 28.2 76.8232 28.048C77.1992 27.888 77.5912 27.808 77.9992 27.808C78.5592 27.808 79.0232 27.912 79.3912 28.12C79.7672 28.32 80.0472 28.604 80.2312 28.972C80.4152 29.332 80.5072 29.76 80.5072 30.256V34H79.6072L79.5472 32.932C79.4672 33.1 79.3632 33.26 79.2352 33.412C79.1152 33.556 78.9712 33.684 78.8032 33.796C78.6352 33.9 78.4432 33.984 78.2272 34.048C78.0192 34.112 77.7792 34.144 77.5072 34.144ZM77.6632 33.292C77.9432 33.292 78.1952 33.236 78.4192 33.124C78.6512 33.004 78.8472 32.844 79.0072 32.644C79.1672 32.436 79.2872 32.208 79.3672 31.96C79.4552 31.712 79.4992 31.452 79.4992 31.18V31.144H77.9872C77.5952 31.144 77.2792 31.192 77.0392 31.288C76.7992 31.376 76.6272 31.504 76.5232 31.672C76.4192 31.832 76.3672 32.016 76.3672 32.224C76.3672 32.44 76.4152 32.628 76.5112 32.788C76.6152 32.948 76.7632 33.072 76.9552 33.16C77.1552 33.248 77.3912 33.292 77.6632 33.292ZM82.0666 34V27.952H82.9786L83.0386 28.816C83.2306 28.504 83.4866 28.26 83.8066 28.084C84.1346 27.9 84.4906 27.808 84.8746 27.808C85.1866 27.808 85.4666 27.852 85.7146 27.94C85.9706 28.02 86.1946 28.148 86.3866 28.324C86.5786 28.492 86.7346 28.708 86.8546 28.972C87.0626 28.604 87.3466 28.32 87.7066 28.12C88.0746 27.912 88.4666 27.808 88.8826 27.808C89.3466 27.808 89.7506 27.904 90.0946 28.096C90.4466 28.28 90.7146 28.564 90.8986 28.948C91.0906 29.324 91.1866 29.804 91.1866 30.388V34H90.1906V30.496C90.1906 29.888 90.0666 29.432 89.8186 29.128C89.5706 28.824 89.2226 28.672 88.7746 28.672C88.4626 28.672 88.1826 28.756 87.9346 28.924C87.6866 29.084 87.4906 29.32 87.3466 29.632C87.2026 29.944 87.1306 30.328 87.1306 30.784V34H86.1226V30.496C86.1226 29.888 85.9986 29.432 85.7506 29.128C85.5026 28.824 85.1506 28.672 84.6946 28.672C84.3906 28.672 84.1146 28.756 83.8666 28.924C83.6266 29.084 83.4346 29.32 83.2906 29.632C83.1466 29.944 83.0746 30.328 83.0746 30.784V34H82.0666ZM92.8501 34V27.952H93.8581V34H92.8501ZM93.3541 26.668C93.1541 26.668 92.9861 26.604 92.8501 26.476C92.7221 26.34 92.6581 26.172 92.6581 25.972C92.6581 25.772 92.7221 25.612 92.8501 25.492C92.9861 25.364 93.1541 25.3 93.3541 25.3C93.5461 25.3 93.7101 25.364 93.8461 25.492C93.9821 25.612 94.0501 25.772 94.0501 25.972C94.0501 26.172 93.9821 26.34 93.8461 26.476C93.7101 26.604 93.5461 26.668 93.3541 26.668ZM95.6369 34V27.952H96.5489L96.5969 29.008C96.7889 28.632 97.0609 28.34 97.4129 28.132C97.7729 27.916 98.1809 27.808 98.6369 27.808C99.1089 27.808 99.5169 27.904 99.8609 28.096C100.205 28.28 100.473 28.564 100.665 28.948C100.857 29.324 100.953 29.804 100.953 30.388V34H99.9449V30.496C99.9449 29.888 99.8089 29.432 99.5369 29.128C99.2729 28.824 98.8969 28.672 98.4089 28.672C98.0729 28.672 97.7729 28.756 97.5089 28.924C97.2449 29.084 97.0329 29.32 96.8729 29.632C96.7209 29.936 96.6449 30.316 96.6449 30.772V34H95.6369ZM104.916 36.784C104.372 36.784 103.888 36.712 103.464 36.568C103.048 36.432 102.724 36.22 102.492 35.932C102.26 35.644 102.144 35.288 102.144 34.864C102.144 34.68 102.18 34.484 102.252 34.276C102.332 34.068 102.464 33.864 102.648 33.664C102.84 33.464 103.108 33.284 103.451 33.124L104.148 33.532C103.724 33.708 103.448 33.908 103.32 34.132C103.192 34.364 103.128 34.576 103.128 34.768C103.128 35.032 103.204 35.252 103.356 35.428C103.508 35.604 103.72 35.736 103.992 35.824C104.264 35.912 104.572 35.956 104.916 35.956C105.26 35.956 105.556 35.908 105.804 35.812C106.052 35.716 106.244 35.58 106.38 35.404C106.516 35.228 106.584 35.02 106.584 34.78C106.584 34.5 106.48 34.264 106.272 34.072C106.064 33.888 105.668 33.78 105.084 33.748C104.612 33.716 104.216 33.672 103.896 33.616C103.576 33.56 103.312 33.496 103.104 33.424C102.896 33.344 102.72 33.256 102.576 33.16C102.44 33.064 102.316 32.964 102.204 32.86V32.584L103.368 31.432L104.244 31.744L103.044 32.824L103.2 32.404C103.288 32.468 103.372 32.528 103.451 32.584C103.532 32.64 103.64 32.688 103.776 32.728C103.912 32.768 104.1 32.804 104.34 32.836C104.588 32.868 104.912 32.9 105.312 32.932C105.864 32.972 106.304 33.068 106.632 33.22C106.968 33.372 107.208 33.576 107.352 33.832C107.504 34.088 107.58 34.392 107.58 34.744C107.58 35.088 107.484 35.412 107.292 35.716C107.108 36.028 106.82 36.284 106.428 36.484C106.036 36.684 105.532 36.784 104.916 36.784ZM104.904 32.104C104.4 32.104 103.968 32.008 103.608 31.816C103.256 31.624 102.988 31.368 102.804 31.048C102.62 30.72 102.528 30.356 102.528 29.956C102.528 29.556 102.62 29.196 102.804 28.876C102.996 28.556 103.268 28.3 103.62 28.108C103.972 27.908 104.4 27.808 104.904 27.808C105.408 27.808 105.836 27.908 106.188 28.108C106.54 28.3 106.808 28.556 106.992 28.876C107.176 29.196 107.268 29.556 107.268 29.956C107.268 30.356 107.176 30.72 106.992 31.048C106.808 31.368 106.54 31.624 106.188 31.816C105.836 32.008 105.408 32.104 104.904 32.104ZM104.904 31.276C105.336 31.276 105.676 31.164 105.924 30.94C106.172 30.716 106.296 30.388 106.296 29.956C106.296 29.532 106.172 29.208 105.924 28.984C105.676 28.76 105.336 28.648 104.904 28.648C104.48 28.648 104.136 28.76 103.872 28.984C103.616 29.208 103.488 29.532 103.488 29.956C103.488 30.388 103.616 30.716 103.872 30.94C104.128 31.164 104.472 31.276 104.904 31.276ZM105.888 28.804L105.588 27.952H108.06V28.708L105.888 28.804Z" fill="white"/>
<path d="M52.9 88V79.6H55.636C56.3 79.6 56.844 79.712 57.268 79.936C57.7 80.152 58.016 80.444 58.216 80.812C58.424 81.18 58.528 81.6 58.528 82.072C58.528 82.528 58.424 82.944 58.216 83.32C58.016 83.688 57.704 83.984 57.28 84.208C56.856 84.432 56.308 84.544 55.636 84.544H53.908V88H52.9ZM53.908 83.692H55.624C56.296 83.692 56.776 83.544 57.064 83.248C57.352 82.952 57.496 82.56 57.496 82.072C57.496 81.552 57.352 81.152 57.064 80.872C56.776 80.584 56.296 80.44 55.624 80.44H53.908V83.692ZM62.1014 88.144C61.5334 88.144 61.0294 88.012 60.5894 87.748C60.1574 87.484 59.8174 87.116 59.5694 86.644C59.3214 86.164 59.1974 85.608 59.1974 84.976C59.1974 84.336 59.3174 83.78 59.5574 83.308C59.8054 82.836 60.1494 82.468 60.5894 82.204C61.0374 81.94 61.5494 81.808 62.1254 81.808C62.7174 81.808 63.2174 81.94 63.6254 82.204C64.0414 82.468 64.3574 82.816 64.5734 83.248C64.7974 83.672 64.9094 84.14 64.9094 84.652C64.9094 84.732 64.9094 84.816 64.9094 84.904C64.9094 84.992 64.9054 85.092 64.8974 85.204H59.9534V84.424H63.9254C63.9014 83.872 63.7174 83.44 63.3734 83.128C63.0374 82.816 62.6134 82.66 62.1014 82.66C61.7574 82.66 61.4374 82.74 61.1414 82.9C60.8534 83.052 60.6214 83.28 60.4454 83.584C60.2694 83.88 60.1814 84.252 60.1814 84.7V85.036C60.1814 85.532 60.2694 85.948 60.4454 86.284C60.6294 86.62 60.8654 86.872 61.1534 87.04C61.4494 87.208 61.7654 87.292 62.1014 87.292C62.5254 87.292 62.8734 87.2 63.1454 87.016C63.4254 86.824 63.6254 86.568 63.7454 86.248H64.7414C64.6454 86.608 64.4774 86.932 64.2374 87.22C63.9974 87.508 63.6974 87.736 63.3374 87.904C62.9854 88.064 62.5734 88.144 62.1014 88.144ZM68.4465 88C68.0865 88 67.7745 87.944 67.5105 87.832C67.2465 87.72 67.0425 87.532 66.8985 87.268C66.7625 86.996 66.6945 86.632 66.6945 86.176V82.804H65.6385V81.952H66.6945L66.8265 80.488H67.7025V81.952H69.4545V82.804H67.7025V86.176C67.7025 86.552 67.7785 86.808 67.9305 86.944C68.0825 87.072 68.3505 87.136 68.7345 87.136H69.3825V88H68.4465ZM73.0497 88.144C72.5457 88.144 72.1057 88.06 71.7297 87.892C71.3617 87.724 71.0657 87.492 70.8417 87.196C70.6257 86.892 70.4937 86.536 70.4457 86.128H71.4777C71.5177 86.336 71.6017 86.528 71.7297 86.704C71.8577 86.88 72.0297 87.024 72.2457 87.136C72.4697 87.24 72.7417 87.292 73.0617 87.292C73.3417 87.292 73.5737 87.252 73.7577 87.172C73.9417 87.084 74.0777 86.968 74.1657 86.824C74.2617 86.68 74.3097 86.524 74.3097 86.356C74.3097 86.108 74.2497 85.92 74.1297 85.792C74.0177 85.664 73.8497 85.564 73.6257 85.492C73.4017 85.412 73.1297 85.344 72.8097 85.288C72.5457 85.24 72.2857 85.176 72.0297 85.096C71.7737 85.016 71.5457 84.912 71.3457 84.784C71.1457 84.648 70.9857 84.484 70.8657 84.292C70.7537 84.1 70.6977 83.864 70.6977 83.584C70.6977 83.24 70.7857 82.936 70.9617 82.672C71.1377 82.4 71.3897 82.188 71.7177 82.036C72.0537 81.884 72.4417 81.808 72.8817 81.808C73.5297 81.808 74.0537 81.964 74.4537 82.276C74.8537 82.588 75.0897 83.04 75.1617 83.632H74.1657C74.1257 83.328 73.9937 83.092 73.7697 82.924C73.5537 82.748 73.2537 82.66 72.8697 82.66C72.4937 82.66 72.2057 82.736 72.0057 82.888C71.8137 83.04 71.7177 83.24 71.7177 83.488C71.7177 83.648 71.7697 83.792 71.8737 83.92C71.9857 84.04 72.1457 84.144 72.3537 84.232C72.5697 84.32 72.8337 84.392 73.1457 84.448C73.5457 84.52 73.9097 84.616 74.2377 84.736C74.5657 84.856 74.8297 85.036 75.0297 85.276C75.2377 85.508 75.3417 85.84 75.3417 86.272C75.3417 86.648 75.2457 86.976 75.0537 87.256C74.8697 87.536 74.6057 87.756 74.2617 87.916C73.9177 88.068 73.5137 88.144 73.0497 88.144Z" fill="white"/>
<rect x="17" y="69" width="30" height="30" rx="10" fill="#64CFF6"/>
<path d="M28.25 36.75H35.75M30.5 26.8125C30.5002 26.7126 30.527 26.6145 30.5776 26.5284C30.6283 26.4423 30.7009 26.3712 30.7882 26.3225C30.8754 26.2738 30.974 26.2491 31.0739 26.2512C31.1738 26.2532 31.2713 26.2818 31.3565 26.334L34.1045 28.0208C34.1864 28.0711 34.254 28.1416 34.301 28.2255C34.3479 28.3094 34.3725 28.4039 34.3725 28.5C34.3725 28.5961 34.3479 28.6906 34.301 28.7745C34.254 28.8584 34.1864 28.9289 34.1045 28.9792L31.3565 30.6667C31.2712 30.719 31.1735 30.7476 31.0735 30.7496C30.9735 30.7515 30.8748 30.7268 30.7875 30.6779C30.7002 30.629 30.6276 30.5577 30.5771 30.4714C30.5265 30.385 30.4999 30.2868 30.5 30.1867V26.8125ZM26 23.25H38C38.8284 23.25 39.5 23.9216 39.5 24.75V32.25C39.5 33.0784 38.8284 33.75 38 33.75H26C25.1716 33.75 24.5 33.0784 24.5 32.25V24.75C24.5 23.9216 25.1716 23.25 26 23.25Z" stroke="white" stroke-linecap="round" stroke-linejoin="round"/>
<path d="M28.9999 85.5V85.875M34.9999 85.5V85.875M31.9999 78.75C32.5024 78.75 33.0124 78.8175 33.4999 78.945C34.8349 77.445 37.2724 76.815 38.3149 77.25C39.3649 77.685 37.9999 82.5 37.9999 82.5C38.4274 83.3025 38.7499 84.18 38.7499 85.08C38.7499 88.425 35.7274 90.75 31.9999 90.75C28.2724 90.75 25.2499 88.5 25.2499 85.08C25.2499 84.1425 25.6249 83.28 25.9999 82.5C25.9999 82.5 24.5824 77.685 25.6249 77.25C26.6674 76.815 29.1649 77.4225 30.4999 78.9225C30.992 78.8093 31.4951 78.7515 31.9999 78.75ZM31.4374 87.1875H32.5624L31.9999 87.75L31.4374 87.1875Z" stroke="white" stroke-linecap="round" stroke-linejoin="round"/>
<line x1="1" y1="58.5" x2="201" y2="58.5" stroke="#242442"/>
<g clip-path="url(#clip0_359_161)">
<path d="M164.88 26.109C165.277 25.7126 165.5 25.1748 165.5 24.6141C165.5 24.0534 165.277 23.5157 164.881 23.1191C164.484 22.7226 163.947 22.4998 163.386 22.4997C162.825 22.4996 162.287 22.7223 161.891 23.1187L151.881 33.1305C151.707 33.3041 151.579 33.5179 151.506 33.753L150.516 37.017C150.496 37.0819 150.495 37.1508 150.511 37.2164C150.528 37.282 150.562 37.3419 150.61 37.3897C150.658 37.4376 150.718 37.4715 150.784 37.4881C150.849 37.5046 150.918 37.503 150.983 37.4835L154.248 36.4935C154.483 36.4221 154.696 36.2941 154.87 36.1207L164.88 26.109Z" stroke="#8C89B3" stroke-width="1.5" stroke-linecap="round" stroke-linejoin="round"/>
</g>
<path d="M175.25 25.5H188.75M187.25 25.5V36C187.25 36.75 186.5 37.5 185.75 37.5H178.25C177.5 37.5 176.75 36.75 176.75 36V25.5M179 25.5V24C179 23.25 179.75 22.5 180.5 22.5H183.5C184.25 22.5 185 23.25 185 24V25.5M180.5 29.25V33.75M183.5 29.25V33.75" stroke="#8C89B3" stroke-width="1.5" stroke-linecap="round" stroke-linejoin="round"/>
<g clip-path="url(#clip1_359_161)">
<path d="M164.88 80.109C165.277 79.7126 165.5 79.1748 165.5 78.6141C165.5 78.0534 165.277 77.5157 164.881 77.1191C164.484 76.7226 163.947 76.4998 163.386 76.4997C162.825 76.4996 162.287 76.7223 161.891 77.1187L151.881 87.1305C151.707 87.3041 151.579 87.5179 151.506 87.753L150.516 91.017C150.496 91.0819 150.495 91.1508 150.511 91.2164C150.528 91.282 150.562 91.3419 150.61 91.3897C150.658 91.4376 150.718 91.4715 150.784 91.4881C150.849 91.5046 150.918 91.503 150.983 91.4835L154.248 90.4935C154.483 90.4221 154.696 90.2941 154.87 90.1207L164.88 80.109Z" stroke="#8C89B3" stroke-width="1.5" stroke-linecap="round" stroke-linejoin="round"/>
</g>
<path d="M175.25 79.5H188.75M187.25 79.5V90C187.25 90.75 186.5 91.5 185.75 91.5H178.25C177.5 91.5 176.75 90.75 176.75 90V79.5M179 79.5V78C179 77.25 179.75 76.5 180.5 76.5H183.5C184.25 76.5 185 77.25 185 78V79.5M180.5 83.25V87.75M183.5 83.25V87.75" stroke="#8C89B3" stroke-width="1.5" stroke-linecap="round" stroke-linejoin="round"/>
<defs>
<clipPath id="clip0_359_161">
<rect width="18" height="18" fill="white" transform="translate(149 21)"/>
</clipPath>
<clipPath id="clip1_359_161">
<rect width="18" height="18" fill="white" transform="translate(149 75)"/>
</clipPath>
</defs>
</svg>
