<svg width="221" height="132" viewBox="0 0 221 132" fill="none" xmlns="http://www.w3.org/2000/svg">
<rect x="0.5" y="0.5" width="220" height="131" rx="10.9" fill="#1D1D41" stroke="#242442"/>
<path d="M91.73 102V95H92.73V102H91.73ZM94.1409 102V96.96H95.0409L95.1009 97.82C95.2609 97.52 95.4876 97.2833 95.7809 97.11C96.0743 96.93 96.4109 96.84 96.7909 96.84C97.1909 96.84 97.5343 96.92 97.8209 97.08C98.1076 97.24 98.3309 97.4833 98.4909 97.81C98.6509 98.13 98.7309 98.5333 98.7309 99.02V102H97.7309V99.12C97.7309 98.6533 97.6276 98.3 97.4209 98.06C97.2143 97.82 96.9143 97.7 96.5209 97.7C96.2609 97.7 96.0276 97.7633 95.8209 97.89C95.6143 98.01 95.4476 98.19 95.3209 98.43C95.2009 98.67 95.1409 98.9633 95.1409 99.31V102H94.1409ZM102.25 102.12C101.77 102.12 101.347 102.007 100.98 101.78C100.613 101.547 100.327 101.233 100.12 100.84C99.9201 100.44 99.8201 99.9867 99.8201 99.48C99.8201 98.9667 99.9201 98.5133 100.12 98.12C100.327 97.7267 100.613 97.4167 100.98 97.19C101.353 96.9567 101.78 96.84 102.26 96.84C102.653 96.84 103 96.92 103.3 97.08C103.6 97.2333 103.833 97.4533 104 97.74V94.8H105V102H104.1L104 101.22C103.9 101.373 103.77 101.52 103.61 101.66C103.45 101.793 103.257 101.903 103.03 101.99C102.803 102.077 102.543 102.12 102.25 102.12ZM102.41 101.25C102.723 101.25 103 101.177 103.24 101.03C103.48 100.883 103.663 100.677 103.79 100.41C103.923 100.143 103.99 99.8333 103.99 99.48C103.99 99.1267 103.923 98.82 103.79 98.56C103.663 98.2933 103.48 98.0867 103.24 97.94C103 97.7867 102.723 97.71 102.41 97.71C102.11 97.71 101.84 97.7867 101.6 97.94C101.36 98.0867 101.173 98.2933 101.04 98.56C100.907 98.82 100.84 99.1267 100.84 99.48C100.84 99.8333 100.907 100.143 101.04 100.41C101.173 100.677 101.36 100.883 101.6 101.03C101.84 101.177 102.11 101.25 102.41 101.25ZM106.438 102V96.96H107.438V102H106.438ZM106.948 96.01C106.754 96.01 106.594 95.95 106.468 95.83C106.348 95.71 106.288 95.5567 106.288 95.37C106.288 95.19 106.348 95.0433 106.468 94.93C106.594 94.81 106.754 94.75 106.948 94.75C107.134 94.75 107.291 94.81 107.418 94.93C107.544 95.0433 107.608 95.19 107.608 95.37C107.608 95.5567 107.544 95.71 107.418 95.83C107.291 95.95 107.134 96.01 106.948 96.01ZM111.198 102.12C110.711 102.12 110.278 102.01 109.898 101.79C109.518 101.563 109.218 101.253 108.998 100.86C108.784 100.467 108.678 100.01 108.678 99.49C108.678 98.9633 108.784 98.5033 108.998 98.11C109.218 97.71 109.518 97.4 109.898 97.18C110.278 96.9533 110.711 96.84 111.198 96.84C111.811 96.84 112.324 97 112.738 97.32C113.151 97.64 113.414 98.0733 113.528 98.62H112.488C112.421 98.3267 112.268 98.1 112.028 97.94C111.794 97.78 111.514 97.7 111.188 97.7C110.921 97.7 110.674 97.77 110.448 97.91C110.221 98.0433 110.038 98.2433 109.898 98.51C109.764 98.77 109.698 99.0933 109.698 99.48C109.698 99.7667 109.738 100.023 109.818 100.25C109.898 100.47 110.004 100.657 110.138 100.81C110.278 100.963 110.438 101.08 110.618 101.16C110.798 101.233 110.988 101.27 111.188 101.27C111.408 101.27 111.604 101.237 111.778 101.17C111.958 101.097 112.108 100.99 112.228 100.85C112.354 100.71 112.441 100.543 112.488 100.35H113.528C113.414 100.883 113.151 101.313 112.738 101.64C112.324 101.96 111.811 102.12 111.198 102.12ZM116.368 102.12C115.954 102.12 115.611 102.05 115.338 101.91C115.064 101.77 114.861 101.583 114.728 101.35C114.594 101.11 114.528 100.853 114.528 100.58C114.528 100.247 114.614 99.9633 114.788 99.73C114.961 99.49 115.208 99.3067 115.528 99.18C115.848 99.0533 116.231 98.99 116.678 98.99H117.988C117.988 98.6967 117.944 98.4533 117.858 98.26C117.771 98.0667 117.641 97.9233 117.468 97.83C117.301 97.73 117.088 97.68 116.828 97.68C116.528 97.68 116.271 97.7533 116.058 97.9C115.844 98.04 115.711 98.25 115.658 98.53H114.658C114.698 98.1767 114.818 97.8767 115.018 97.63C115.224 97.3767 115.488 97.1833 115.808 97.05C116.128 96.91 116.468 96.84 116.828 96.84C117.301 96.84 117.698 96.9233 118.018 97.09C118.338 97.2567 118.578 97.4933 118.738 97.8C118.904 98.1 118.988 98.46 118.988 98.88V102H118.118L118.038 101.15C117.964 101.283 117.878 101.41 117.778 101.53C117.678 101.65 117.558 101.753 117.418 101.84C117.284 101.927 117.128 101.993 116.948 102.04C116.774 102.093 116.581 102.12 116.368 102.12ZM116.558 101.31C116.771 101.31 116.964 101.267 117.138 101.18C117.311 101.093 117.458 100.977 117.578 100.83C117.704 100.677 117.798 100.507 117.858 100.32C117.924 100.127 117.961 99.93 117.968 99.73V99.7H116.778C116.491 99.7 116.258 99.7367 116.078 99.81C115.904 99.8767 115.778 99.97 115.698 100.09C115.618 100.21 115.578 100.35 115.578 100.51C115.578 100.677 115.614 100.82 115.688 100.94C115.768 101.053 115.881 101.143 116.028 101.21C116.174 101.277 116.351 101.31 116.558 101.31ZM122.504 102.12C122.024 102.12 121.601 102.007 121.234 101.78C120.867 101.547 120.581 101.233 120.374 100.84C120.174 100.44 120.074 99.9867 120.074 99.48C120.074 98.9667 120.174 98.5133 120.374 98.12C120.581 97.7267 120.867 97.4167 121.234 97.19C121.607 96.9567 122.034 96.84 122.514 96.84C122.907 96.84 123.254 96.92 123.554 97.08C123.854 97.2333 124.087 97.4533 124.254 97.74V94.8H125.254V102H124.354L124.254 101.22C124.154 101.373 124.024 101.52 123.864 101.66C123.704 101.793 123.511 101.903 123.284 101.99C123.057 102.077 122.797 102.12 122.504 102.12ZM122.664 101.25C122.977 101.25 123.254 101.177 123.494 101.03C123.734 100.883 123.917 100.677 124.044 100.41C124.177 100.143 124.244 99.8333 124.244 99.48C124.244 99.1267 124.177 98.82 124.044 98.56C123.917 98.2933 123.734 98.0867 123.494 97.94C123.254 97.7867 122.977 97.71 122.664 97.71C122.364 97.71 122.094 97.7867 121.854 97.94C121.614 98.0867 121.427 98.2933 121.294 98.56C121.161 98.82 121.094 99.1267 121.094 99.48C121.094 99.8333 121.161 100.143 121.294 100.41C121.427 100.677 121.614 100.883 121.854 101.03C122.094 101.177 122.364 101.25 122.664 101.25ZM128.921 102.12C128.448 102.12 128.021 102.01 127.641 101.79C127.268 101.57 126.971 101.263 126.751 100.87C126.538 100.47 126.431 100.01 126.431 99.49C126.431 98.9567 126.541 98.4933 126.761 98.1C126.981 97.7 127.281 97.39 127.661 97.17C128.041 96.95 128.468 96.84 128.941 96.84C129.421 96.84 129.848 96.95 130.221 97.17C130.595 97.39 130.888 97.6967 131.101 98.09C131.321 98.4833 131.431 98.9467 131.431 99.48C131.431 100.013 131.321 100.477 131.101 100.87C130.888 101.263 130.591 101.57 130.211 101.79C129.831 102.01 129.401 102.12 128.921 102.12ZM128.921 101.26C129.195 101.26 129.441 101.193 129.661 101.06C129.888 100.927 130.068 100.73 130.201 100.47C130.341 100.203 130.411 99.8733 130.411 99.48C130.411 99.0867 130.345 98.76 130.211 98.5C130.078 98.2333 129.898 98.0333 129.671 97.9C129.451 97.7667 129.208 97.7 128.941 97.7C128.675 97.7 128.428 97.7667 128.201 97.9C127.975 98.0333 127.791 98.2333 127.651 98.5C127.518 98.76 127.451 99.0867 127.451 99.48C127.451 99.8733 127.518 100.203 127.651 100.47C127.791 100.73 127.971 100.927 128.191 101.06C128.418 101.193 128.661 101.26 128.921 101.26ZM132.608 102V96.96H133.508L133.598 97.91C133.711 97.6833 133.858 97.4933 134.038 97.34C134.218 97.18 134.428 97.0567 134.668 96.97C134.914 96.8833 135.194 96.84 135.508 96.84V97.9H135.148C134.941 97.9 134.744 97.9267 134.558 97.98C134.371 98.0267 134.204 98.11 134.058 98.23C133.918 98.35 133.808 98.5133 133.728 98.72C133.648 98.9267 133.608 99.1833 133.608 99.49V102H132.608Z" fill="#8C89B3"/>
<path d="M79.5344 68V56.8H86.7664V58.352H81.4544V61.568H86.2864V63.088H81.4544V66.448H86.7664V68H79.5344ZM95.0084 71.52V66.832C94.7524 67.216 94.4004 67.5413 93.9524 67.808C93.5151 68.064 92.9764 68.192 92.3364 68.192C91.5791 68.192 90.9071 68.0107 90.3204 67.648C89.7338 67.2747 89.2751 66.7733 88.9444 66.144C88.6138 65.504 88.4484 64.7787 88.4484 63.968C88.4484 63.1573 88.6138 62.4373 88.9444 61.808C89.2751 61.168 89.7338 60.6667 90.3204 60.304C90.9178 59.9307 91.5898 59.744 92.3364 59.744C92.7524 59.744 93.1258 59.8027 93.4564 59.92C93.7978 60.0267 94.0964 60.1813 94.3524 60.384C94.6084 60.576 94.8271 60.8053 95.0084 61.072L95.2004 59.936H96.9284V71.52H95.0084ZM92.7044 66.528C93.1631 66.528 93.5684 66.4213 93.9204 66.208C94.2724 65.984 94.5444 65.68 94.7364 65.296C94.9284 64.912 95.0244 64.4693 95.0244 63.968C95.0244 63.456 94.9284 63.0133 94.7364 62.64C94.5444 62.256 94.2724 61.9573 93.9204 61.744C93.5684 61.5307 93.1631 61.424 92.7044 61.424C92.2671 61.424 91.8724 61.5307 91.5204 61.744C91.1684 61.9573 90.8911 62.256 90.6884 62.64C90.4964 63.024 90.4004 63.4667 90.4004 63.968C90.4004 64.4693 90.4964 64.912 90.6884 65.296C90.8911 65.68 91.1684 65.984 91.5204 66.208C91.8724 66.4213 92.2671 66.528 92.7044 66.528ZM102.056 68.192C101.406 68.192 100.846 68.064 100.376 67.808C99.9175 67.5413 99.5655 67.1467 99.3202 66.624C99.0749 66.0907 98.9522 65.4347 98.9522 64.656V59.936H100.872V64.464C100.872 65.1573 101.016 65.6853 101.304 66.048C101.603 66.4 102.051 66.576 102.648 66.576C103.032 66.576 103.374 66.4853 103.672 66.304C103.982 66.1227 104.222 65.8613 104.392 65.52C104.574 65.168 104.664 64.7413 104.664 64.24V59.936H106.584V68H104.888L104.744 66.656C104.499 67.1253 104.142 67.4987 103.672 67.776C103.214 68.0533 102.675 68.192 102.056 68.192ZM108.8 68V59.936H110.72V68H108.8ZM109.76 58.656C109.408 58.656 109.115 58.5493 108.88 58.336C108.656 58.112 108.544 57.84 108.544 57.52C108.544 57.1893 108.656 56.9227 108.88 56.72C109.115 56.5067 109.408 56.4 109.76 56.4C110.112 56.4 110.4 56.5067 110.624 56.72C110.859 56.9227 110.976 57.1893 110.976 57.52C110.976 57.84 110.859 58.112 110.624 58.336C110.4 58.5493 110.112 58.656 109.76 58.656ZM112.939 68V56.48H114.859V68H112.939ZM117.002 68V59.936H118.922V68H117.002ZM116.314 59.248L116.138 57.952L119.562 55.952L119.786 57.44L116.314 59.248ZM125.672 68.192C125.246 68.192 124.862 68.1333 124.52 68.016C124.179 67.9093 123.88 67.76 123.624 67.568C123.368 67.3653 123.155 67.136 122.984 66.88L122.776 68H121.064V56.48H122.984V61.12C123.24 60.7253 123.587 60.4 124.024 60.144C124.462 59.8773 125.006 59.744 125.656 59.744C126.414 59.744 127.08 59.9307 127.656 60.304C128.243 60.6667 128.702 61.168 129.032 61.808C129.374 62.4373 129.544 63.1627 129.544 63.984C129.544 64.784 129.379 65.504 129.048 66.144C128.718 66.784 128.259 67.2853 127.672 67.648C127.096 68.0107 126.43 68.192 125.672 68.192ZM125.272 66.528C125.72 66.528 126.12 66.4213 126.472 66.208C126.824 65.984 127.096 65.6853 127.288 65.312C127.491 64.928 127.592 64.48 127.592 63.968C127.592 63.4667 127.491 63.024 127.288 62.64C127.096 62.256 126.824 61.9573 126.472 61.744C126.12 61.5307 125.72 61.424 125.272 61.424C124.814 61.424 124.408 61.5307 124.056 61.744C123.715 61.9573 123.443 62.256 123.24 62.64C123.048 63.024 122.952 63.4667 122.952 63.968C122.952 64.48 123.048 64.928 123.24 65.312C123.443 65.6853 123.715 65.984 124.056 66.208C124.408 66.4213 124.814 66.528 125.272 66.528ZM131.408 68V59.936H133.12L133.296 61.44C133.488 61.088 133.728 60.7893 134.016 60.544C134.304 60.288 134.64 60.0907 135.024 59.952C135.419 59.8133 135.851 59.744 136.32 59.744V61.776H135.648C135.328 61.776 135.024 61.8187 134.736 61.904C134.448 61.9787 134.197 62.1067 133.984 62.288C133.781 62.4587 133.621 62.6987 133.504 63.008C133.387 63.3067 133.328 63.6853 133.328 64.144V68H131.408ZM137.847 68V59.936H139.767V68H137.847ZM138.807 58.656C138.455 58.656 138.162 58.5493 137.927 58.336C137.703 58.112 137.591 57.84 137.591 57.52C137.591 57.1893 137.703 56.9227 137.927 56.72C138.162 56.5067 138.455 56.4 138.807 56.4C139.159 56.4 139.447 56.5067 139.671 56.72C139.906 56.9227 140.023 57.1893 140.023 57.52C140.023 57.84 139.906 58.112 139.671 58.336C139.447 58.5493 139.159 58.656 138.807 58.656ZM145.746 68.192C144.978 68.192 144.285 68.016 143.666 67.664C143.058 67.3013 142.578 66.8053 142.226 66.176C141.885 65.536 141.714 64.8053 141.714 63.984C141.714 63.1413 141.89 62.4053 142.242 61.776C142.594 61.136 143.074 60.64 143.682 60.288C144.301 59.9253 144.994 59.744 145.762 59.744C146.53 59.744 147.218 59.9253 147.826 60.288C148.445 60.64 148.925 61.1307 149.266 61.76C149.618 62.3893 149.794 63.1253 149.794 63.968C149.794 64.8107 149.618 65.5467 149.266 66.176C148.914 66.8053 148.429 67.3013 147.81 67.664C147.202 68.016 146.514 68.192 145.746 68.192ZM145.746 66.544C146.13 66.544 146.477 66.448 146.786 66.256C147.106 66.064 147.362 65.776 147.554 65.392C147.746 65.008 147.842 64.5333 147.842 63.968C147.842 63.4027 147.746 62.9333 147.554 62.56C147.373 62.176 147.122 61.888 146.802 61.696C146.493 61.504 146.146 61.408 145.762 61.408C145.389 61.408 145.042 61.504 144.722 61.696C144.402 61.888 144.146 62.176 143.954 62.56C143.762 62.9333 143.666 63.4027 143.666 63.968C143.666 64.5333 143.762 65.008 143.954 65.392C144.146 65.776 144.397 66.064 144.706 66.256C145.026 66.448 145.373 66.544 145.746 66.544ZM84.7908 87.52V75.936H86.5028L86.7108 77.104C86.8814 76.8693 87.0841 76.6507 87.3188 76.448C87.5641 76.2347 87.8574 76.064 88.1988 75.936C88.5508 75.808 88.9508 75.744 89.3988 75.744C90.1561 75.744 90.8228 75.9307 91.3988 76.304C91.9854 76.6773 92.4441 77.184 92.7748 77.824C93.1054 78.4533 93.2708 79.1733 93.2708 79.984C93.2708 80.7947 93.1001 81.52 92.7587 82.16C92.4281 82.7893 91.9694 83.2853 91.3828 83.648C90.8068 84.0107 90.1454 84.192 89.3988 84.192C88.7908 84.192 88.2574 84.08 87.7988 83.856C87.3508 83.6213 86.9881 83.2907 86.7108 82.864V87.52H84.7908ZM88.9988 82.528C89.4468 82.528 89.8468 82.4213 90.1988 82.208C90.5508 81.9947 90.8228 81.696 91.0148 81.312C91.2174 80.928 91.3188 80.4853 91.3188 79.984C91.3188 79.472 91.2174 79.024 91.0148 78.64C90.8228 78.256 90.5508 77.9573 90.1988 77.744C89.8468 77.5307 89.4468 77.424 88.9988 77.424C88.5401 77.424 88.1348 77.5307 87.7828 77.744C87.4414 77.9573 87.1694 78.256 86.9668 78.64C86.7748 79.024 86.6788 79.4667 86.6788 79.968C86.6788 80.48 86.7748 80.928 86.9668 81.312C87.1694 81.6853 87.4414 81.984 87.7828 82.208C88.1348 82.4213 88.5401 82.528 88.9988 82.528ZM98.9105 84.192C98.1105 84.192 97.4065 84.0213 96.7985 83.68C96.1905 83.328 95.7158 82.8373 95.3745 82.208C95.0332 81.5787 94.8625 80.8533 94.8625 80.032C94.8625 79.1787 95.0278 78.432 95.3585 77.792C95.6998 77.152 96.1745 76.6507 96.7825 76.288C97.4012 75.9253 98.1158 75.744 98.9265 75.744C99.7158 75.744 100.404 75.92 100.991 76.272C101.577 76.624 102.031 77.0987 102.351 77.696C102.671 78.2827 102.831 78.944 102.831 79.68C102.831 79.7867 102.831 79.904 102.831 80.032C102.831 80.16 102.82 80.2933 102.799 80.432H96.2385V79.2H100.895C100.873 78.6133 100.676 78.1547 100.303 77.824C99.9292 77.4827 99.4652 77.312 98.9105 77.312C98.5158 77.312 98.1532 77.4027 97.8225 77.584C97.4918 77.7653 97.2305 78.0373 97.0385 78.4C96.8465 78.752 96.7505 79.2 96.7505 79.744V80.208C96.7505 80.7093 96.8412 81.1413 97.0225 81.504C97.2145 81.8667 97.4705 82.144 97.7905 82.336C98.1212 82.5173 98.4892 82.608 98.8945 82.608C99.3425 82.608 99.7105 82.512 99.9985 82.32C100.297 82.128 100.516 81.872 100.655 81.552H102.607C102.457 82.0533 102.212 82.5067 101.871 82.912C101.529 83.3067 101.108 83.6213 100.607 83.856C100.105 84.08 99.5398 84.192 98.9105 84.192ZM104.603 84V75.936H106.315L106.491 77.44C106.683 77.088 106.923 76.7893 107.211 76.544C107.499 76.288 107.835 76.0907 108.219 75.952C108.614 75.8133 109.046 75.744 109.515 75.744V77.776H108.843C108.523 77.776 108.219 77.8187 107.931 77.904C107.643 77.9787 107.393 78.1067 107.179 78.288C106.977 78.4587 106.817 78.6987 106.699 79.008C106.582 79.3067 106.523 79.6853 106.523 80.144V84H104.603ZM111.363 84V75.056C111.363 74.4373 111.464 73.9413 111.667 73.568C111.88 73.184 112.184 72.9067 112.579 72.736C112.973 72.5653 113.443 72.48 113.987 72.48H114.947V74.112H114.275C113.923 74.112 113.667 74.1867 113.507 74.336C113.357 74.4747 113.283 74.72 113.283 75.072V84H111.363ZM110.211 77.552V75.936H115.107V77.552H110.211ZM120.223 84.192C119.423 84.192 118.719 84.0213 118.111 83.68C117.503 83.328 117.028 82.8373 116.687 82.208C116.346 81.5787 116.175 80.8533 116.175 80.032C116.175 79.1787 116.34 78.432 116.671 77.792C117.012 77.152 117.487 76.6507 118.095 76.288C118.714 75.9253 119.428 75.744 120.239 75.744C121.028 75.744 121.716 75.92 122.303 76.272C122.89 76.624 123.343 77.0987 123.663 77.696C123.983 78.2827 124.143 78.944 124.143 79.68C124.143 79.7867 124.143 79.904 124.143 80.032C124.143 80.16 124.132 80.2933 124.111 80.432H117.551V79.2H122.207C122.186 78.6133 121.988 78.1547 121.615 77.824C121.242 77.4827 120.778 77.312 120.223 77.312C119.828 77.312 119.466 77.4027 119.135 77.584C118.804 77.7653 118.543 78.0373 118.351 78.4C118.159 78.752 118.063 79.2 118.063 79.744V80.208C118.063 80.7093 118.154 81.1413 118.335 81.504C118.527 81.8667 118.783 82.144 119.103 82.336C119.434 82.5173 119.802 82.608 120.207 82.608C120.655 82.608 121.023 82.512 121.311 82.32C121.61 82.128 121.828 81.872 121.967 81.552H123.919C123.77 82.0533 123.524 82.5067 123.183 82.912C122.842 83.3067 122.42 83.6213 121.919 83.856C121.418 84.08 120.852 84.192 120.223 84.192ZM125.996 84V75.936H127.916V84H125.996ZM126.956 74.656C126.604 74.656 126.31 74.5493 126.076 74.336C125.852 74.112 125.74 73.84 125.74 73.52C125.74 73.1893 125.852 72.9227 126.076 72.72C126.31 72.5067 126.604 72.4 126.956 72.4C127.308 72.4 127.596 72.5067 127.82 72.72C128.054 72.9227 128.172 73.1893 128.172 73.52C128.172 73.84 128.054 74.112 127.82 74.336C127.596 74.5493 127.308 74.656 126.956 74.656ZM133.639 84C133.095 84 132.62 83.9147 132.215 83.744C131.82 83.5733 131.511 83.2907 131.287 82.896C131.063 82.5013 130.951 81.968 130.951 81.296V77.552H129.575V75.936H130.951L131.174 73.808H132.871V75.936H135.063V77.552H132.871V81.296C132.871 81.7013 132.956 81.984 133.127 82.144C133.308 82.2933 133.607 82.368 134.023 82.368H135.015V84H133.639ZM140.426 84.192C139.658 84.192 138.964 84.016 138.346 83.664C137.738 83.3013 137.258 82.8053 136.906 82.176C136.564 81.536 136.394 80.8053 136.394 79.984C136.394 79.1413 136.57 78.4053 136.922 77.776C137.274 77.136 137.754 76.64 138.362 76.288C138.98 75.9253 139.674 75.744 140.442 75.744C141.21 75.744 141.898 75.9253 142.506 76.288C143.124 76.64 143.604 77.1307 143.946 77.76C144.298 78.3893 144.474 79.1253 144.474 79.968C144.474 80.8107 144.298 81.5467 143.946 82.176C143.594 82.8053 143.108 83.3013 142.49 83.664C141.882 84.016 141.194 84.192 140.426 84.192ZM140.426 82.544C140.81 82.544 141.156 82.448 141.466 82.256C141.786 82.064 142.042 81.776 142.234 81.392C142.426 81.008 142.522 80.5333 142.522 79.968C142.522 79.4027 142.426 78.9333 142.234 78.56C142.052 78.176 141.802 77.888 141.482 77.696C141.172 77.504 140.826 77.408 140.442 77.408C140.068 77.408 139.722 77.504 139.402 77.696C139.082 77.888 138.826 78.176 138.634 78.56C138.442 78.9333 138.346 79.4027 138.346 79.968C138.346 80.5333 138.442 81.008 138.634 81.392C138.826 81.776 139.076 82.064 139.386 82.256C139.706 82.448 140.052 82.544 140.426 82.544Z" fill="white"/>
<path d="M179.243 56.7462C183.334 53.7524 184.178 47.9382 180.677 44.2724C169.815 32.8985 156.025 24.4614 140.658 19.8827C122.284 14.4076 102.599 14.7302 84.4251 20.8042C66.251 26.8782 50.5207 38.3918 39.4886 53.6948C30.2519 66.5073 24.7057 81.4255 23.3352 96.9094C22.8923 101.912 27.0813 105.924 32.103 105.842C37.1314 105.76 41.0776 101.598 41.6543 96.6016C43.0085 84.8695 47.3652 73.6013 54.3908 63.8558C63.2165 51.6134 75.8008 42.4026 90.3401 37.5434C104.879 32.6842 120.627 32.4261 135.327 36.8061C147.174 40.3363 157.85 46.7335 166.387 55.3376C169.825 58.8023 175.305 59.6289 179.243 56.7462Z" fill="#6359E9"/>
<path d="M195.9 104.5C200.926 104.5 205.05 100.415 204.519 95.4169C203.617 86.9114 201.45 78.5618 198.073 70.6325C193.5 59.8952 186.797 50.139 178.347 41.921C169.897 33.7031 159.865 27.1842 148.824 22.7367C140.515 19.3893 131.756 17.2646 122.837 16.4183C117.971 15.9565 114 19.9623 114 24.85C114 29.7377 117.976 33.6459 122.829 34.2226C129.357 34.9983 135.759 36.632 141.859 39.0893C150.692 42.6474 158.717 47.8624 165.477 54.4368C172.237 61.0112 177.6 68.8162 181.258 77.406C183.721 83.1869 185.379 89.2471 186.2 95.4264C186.862 100.408 190.874 104.5 195.9 104.5Z" fill="#64CFF6"/>
</svg>
